<svg width="29" height="25" viewBox="0 0 29 25" fill="none" xmlns="http://www.w3.org/2000/svg">
<path d="M14.5 8.66667H14.515M13 12.5H14.5V17.6111H16M1 12.5C1 14.0102 1.34919 15.5056 2.02763 16.9009C2.70606 18.2961 3.70047 19.5639 4.95406 20.6317C6.20765 21.6996 7.69588 22.5467 9.33377 23.1246C10.9717 23.7025 12.7272 24 14.5 24C16.2728 24 18.0283 23.7025 19.6662 23.1246C21.3041 22.5467 22.7923 21.6996 24.0459 20.6317C25.2995 19.5639 26.2939 18.2961 26.9724 16.9009C27.6508 15.5056 28 14.0102 28 12.5C28 9.45001 26.5777 6.52494 24.0459 4.36827C21.5142 2.2116 18.0804 1 14.5 1C10.9196 1 7.4858 2.2116 4.95406 4.36827C2.42232 6.52494 1 9.45001 1 12.5Z" stroke="black" stroke-width="2" stroke-linecap="round" stroke-linejoin="round"/>
</svg>
