<svg width="17" height="16" viewBox="0 0 17 16" fill="none" xmlns="http://www.w3.org/2000/svg">
<path d="M13.803 2.80155C15.1799 3.93065 15.9674 5.45468 15.999 7.05136C16.0306 8.64805 15.3037 10.1922 13.9722 11.3573L13.803 11.5009L10.2673 14.3999C9.81867 14.7677 9.21639 14.9818 8.58248 14.9989C7.94856 15.016 7.3304 14.8349 6.85323 14.4922L6.73323 14.3999L3.19666 11.5002C1.79016 10.3467 1 8.78217 1 7.15086C1 5.51955 1.79016 3.95506 3.19666 2.80155C4.60315 1.64804 6.51077 1 8.49985 1C10.4889 1 12.3966 1.64804 13.803 2.80155ZM8.49985 5.10059C8.17155 5.10059 7.84647 5.15362 7.54317 5.25665C7.23986 5.35969 6.96427 5.51071 6.73213 5.7011C6.49999 5.89148 6.31585 6.1175 6.19021 6.36626C6.06458 6.61501 5.99992 6.88162 5.99992 7.15086C5.99992 7.42011 6.06458 7.68672 6.19021 7.93547C6.31585 8.18422 6.49999 8.41024 6.73213 8.60062C6.96427 8.79101 7.23986 8.94203 7.54317 9.04507C7.84647 9.1481 8.17155 9.20114 8.49985 9.20114C9.16287 9.20114 9.79874 8.98513 10.2676 8.60062C10.7364 8.21612 10.9998 7.69463 10.9998 7.15086C10.9998 6.60709 10.7364 6.0856 10.2676 5.7011C9.79874 5.3166 9.16287 5.10059 8.49985 5.10059Z" fill="#EF0404" stroke="black" stroke-width="0.5" stroke-linecap="round" stroke-linejoin="round"/>
</svg>
