<svg width="25" height="27" viewBox="0 0 25 27" fill="none" xmlns="http://www.w3.org/2000/svg">
<path d="M13.8453 0.548205C13.4609 0.196156 12.9519 0 12.4229 0C11.8939 0 11.3849 0.196156 11.0005 0.548205L0.971058 9.72966C0.663967 10.0111 0.419443 10.3504 0.252468 10.7266C0.0854925 11.1029 -0.000417351 11.5082 1.5244e-06 11.9177V23.0887C0.000550412 23.8862 0.328002 24.6509 0.910379 25.2146C1.49276 25.7784 2.28239 26.095 3.10573 26.095H6.21145C7.03514 26.095 7.82509 25.7781 8.40753 25.2139C8.98997 24.6497 9.31717 23.8846 9.31717 23.0867V18.0728C9.31717 17.8068 9.42624 17.5518 9.62039 17.3637C9.81454 17.1757 10.0779 17.07 10.3524 17.07H14.4934C14.7679 17.07 15.0313 17.1757 15.2254 17.3637C15.4196 17.5518 15.5286 17.8068 15.5286 18.0728V23.0867C15.5286 23.8846 15.8558 24.6497 16.4383 25.2139C17.0207 25.7781 17.8107 26.095 18.6343 26.095H21.7401C22.5638 26.095 23.3537 25.7781 23.9361 25.2139C24.5186 24.6497 24.8458 23.8846 24.8458 23.0867V11.9157C24.8457 11.5064 24.7593 11.1014 24.592 10.7255C24.4246 10.3496 24.1799 10.0107 23.8727 9.72966L13.8453 0.544194V0.548205Z" fill="#2898FF"/>
</svg>
