<svg width="26" height="24" viewBox="0 0 26 24" fill="none" xmlns="http://www.w3.org/2000/svg">
<path d="M25 1L16.4851 22.6147C16.4276 22.7297 16.3354 22.8271 16.2193 22.8954C16.1032 22.9637 15.9681 23 15.8301 23C15.6922 23 15.5571 22.9637 15.441 22.8954C15.3249 22.8271 15.2326 22.7297 15.1751 22.6147L10.5902 14.209L1.42034 10.0061C1.29492 9.95344 1.18863 9.86885 1.11412 9.76242C1.03961 9.65598 1 9.53218 1 9.40571C1 9.27925 1.03961 9.15544 1.11412 9.04901C1.18863 8.94258 1.29492 8.85799 1.42034 8.80531L25 1Z" stroke="black" stroke-width="2" stroke-linecap="round" stroke-linejoin="round"/>
</svg>
